<mxfile host="app.diagrams.net" agent="Mozilla/5.0 (Windows NT 10.0; Win64; x64) AppleWebKit/537.36 (KHTML, like Gecko) Chrome/131.0.0.0 Safari/537.36" version="25.0.1">
  <diagram name="Page-1" id="aqUKEE5ip6q27dPO4i9h">
    <mxGraphModel dx="1434" dy="760" grid="1" gridSize="10" guides="1" tooltips="1" connect="1" arrows="1" fold="1" page="1" pageScale="1" pageWidth="850" pageHeight="1100" math="0" shadow="0">
      <root>
        <mxCell id="0" />
        <mxCell id="1" parent="0" />
        <mxCell id="az-PLAFL6kcLN2TnBN8m-4" value="" style="edgeStyle=orthogonalEdgeStyle;rounded=0;orthogonalLoop=1;jettySize=auto;html=1;" edge="1" parent="1" source="az-PLAFL6kcLN2TnBN8m-1" target="az-PLAFL6kcLN2TnBN8m-3">
          <mxGeometry relative="1" as="geometry" />
        </mxCell>
        <mxCell id="az-PLAFL6kcLN2TnBN8m-1" value="log in/sign up" style="rounded=0;whiteSpace=wrap;html=1;" vertex="1" parent="1">
          <mxGeometry x="60" y="340" width="80" height="60" as="geometry" />
        </mxCell>
        <mxCell id="az-PLAFL6kcLN2TnBN8m-6" value="select one board" style="edgeStyle=orthogonalEdgeStyle;rounded=0;orthogonalLoop=1;jettySize=auto;html=1;" edge="1" parent="1" source="az-PLAFL6kcLN2TnBN8m-3" target="az-PLAFL6kcLN2TnBN8m-5">
          <mxGeometry relative="1" as="geometry" />
        </mxCell>
        <mxCell id="az-PLAFL6kcLN2TnBN8m-3" value="BoardsList" style="whiteSpace=wrap;html=1;rounded=0;" vertex="1" parent="1">
          <mxGeometry x="220" y="340" width="120" height="60" as="geometry" />
        </mxCell>
        <mxCell id="az-PLAFL6kcLN2TnBN8m-8" value="" style="edgeStyle=orthogonalEdgeStyle;rounded=0;orthogonalLoop=1;jettySize=auto;html=1;" edge="1" parent="1" source="az-PLAFL6kcLN2TnBN8m-5" target="az-PLAFL6kcLN2TnBN8m-7">
          <mxGeometry relative="1" as="geometry" />
        </mxCell>
        <mxCell id="az-PLAFL6kcLN2TnBN8m-5" value="board page" style="whiteSpace=wrap;html=1;rounded=0;" vertex="1" parent="1">
          <mxGeometry x="490" y="340" width="120" height="60" as="geometry" />
        </mxCell>
        <mxCell id="az-PLAFL6kcLN2TnBN8m-10" value="" style="edgeStyle=orthogonalEdgeStyle;rounded=0;orthogonalLoop=1;jettySize=auto;html=1;" edge="1" parent="1" source="az-PLAFL6kcLN2TnBN8m-7" target="az-PLAFL6kcLN2TnBN8m-9">
          <mxGeometry relative="1" as="geometry" />
        </mxCell>
        <mxCell id="az-PLAFL6kcLN2TnBN8m-7" value="managing cols" style="whiteSpace=wrap;html=1;rounded=0;" vertex="1" parent="1">
          <mxGeometry x="490" y="520" width="120" height="60" as="geometry" />
        </mxCell>
        <mxCell id="az-PLAFL6kcLN2TnBN8m-9" value="jobs" style="whiteSpace=wrap;html=1;rounded=0;" vertex="1" parent="1">
          <mxGeometry x="490" y="660" width="120" height="60" as="geometry" />
        </mxCell>
      </root>
    </mxGraphModel>
  </diagram>
</mxfile>
